<svg xmlns="http://www.w3.org/2000/svg" width="24" height="24" fill="none" viewBox="0 0 24 24">
    <path stroke="#242424" stroke-linecap="round" stroke-linejoin="round" stroke-width="1.6" d="M14.12 14.12c-.275.295-.606.531-.974.695-.368.164-.765.252-1.168.26-.403.007-.803-.068-1.176-.218-.374-.151-.713-.376-.998-.66-.285-.286-.51-.625-.66-.999-.151-.373-.225-.773-.218-1.176.007-.403.095-.8.259-1.168.164-.368.4-.7.695-.974m8.06 8.06C16.23 19.243 14.15 19.965 12 20c-7 0-11-8-11-8 1.244-2.318 2.97-4.343 5.06-5.94l11.88 11.88zM9.9 4.24c.688-.161 1.393-.242 2.1-.24 7 0 11 8 11 8-.607 1.136-1.33 2.205-2.16 3.19L9.9 4.24zM1 1l22 22"/>
</svg>
